<svg width="324" height="85" viewBox="0 0 324 85" fill="none" xmlns="http://www.w3.org/2000/svg">
    <path
        d="M181.427 0.753551C180.67 1.5098 180.602 1.88793 179.639 7.49106C179.261 9.58794 178.608 12.0286 178.195 12.8879L177.439 14.4692L175.652 11.1692C174.689 9.34731 173.727 7.76606 173.589 7.62856C173.417 7.52544 173.245 6.97544 173.211 6.42543C173.039 4.29418 170.598 2.95356 168.708 3.95043C167.092 4.77543 166.233 6.11606 166.233 7.73169C166.233 9.79419 167.47 15.1567 168.433 17.2879C169.842 20.4848 173.039 23.4067 175.067 23.4067C175.411 23.4067 175.892 23.5442 176.167 23.7161C176.752 24.0942 176.683 24.3348 174.483 33.5473C173.142 39.0473 172.489 42.5192 171.698 48.363C171.355 50.838 171.355 51.9036 171.698 53.6567C172.283 56.5442 173.486 59.1911 174.655 60.1193C175.72 60.9786 177.714 61.1161 179.124 60.463C180.361 59.913 181.392 57.7474 181.53 55.4442C181.77 51.0442 183.73 35.0255 185.517 22.3755C186.411 16.0848 186.617 13.4723 186.652 8.38481L186.686 2.12856L185.689 1.0973C184.417 -0.20895 182.458 -0.380825 181.427 0.753551Z"
        fill="black" />
    <path
        d="M16.1858 12.4411C14.1233 13.1973 11.2014 14.5036 9.72329 15.3286C7.21391 16.8067 7.00766 16.8755 6.28578 16.3598C4.53266 15.1223 1.5764 16.3598 1.5764 18.3192C1.5764 18.938 1.50765 19.0067 1.23265 18.5942C-0.314224 16.1536 -0.417349 27.7723 0.992028 38.7036C1.50765 42.4849 2.29828 48.1224 2.74516 51.2505C3.22641 54.3786 4.01703 59.8442 4.49828 63.4536C5.01391 67.0286 5.87328 72.0818 6.42328 74.6255C8.17641 82.7724 10.067 85.2818 14.0545 84.8005C14.9827 84.6974 16.117 84.388 16.5639 84.0787C17.4577 83.4943 18.1795 81.2943 17.9045 79.9536C17.3545 77.3411 17.3202 77.513 18.7295 77.0661C21.3077 76.3099 26.1889 72.013 31.0014 66.2724C31.9296 65.1724 33.5108 63.4193 34.5077 62.4224C35.4702 61.4255 36.2952 60.3599 36.2952 60.0505C36.2952 59.4661 35.1264 58.1255 34.6452 58.1255C33.5452 58.1255 28.1483 60.9786 25.7421 62.8005C21.2389 66.238 16.942 68.8505 16.667 68.3693C16.5295 68.1286 16.0827 65.688 15.6702 62.938C15.292 60.188 14.3983 54.6536 13.7452 50.5974C13.0577 46.5755 12.6452 43.1724 12.817 43.0349C12.9545 42.8974 14.2608 42.5192 15.6702 42.1755C18.2139 41.5567 21.1702 40.388 21.5139 39.9067C21.7889 39.4942 24.8827 38.5317 25.9827 38.5317C27.1514 38.5317 28.0452 37.7411 28.0452 36.7442C28.0452 35.6442 25.4327 32.413 24.3327 32.1036C23.8171 31.9661 21.9952 31.8286 20.2421 31.8286C17.1483 31.8286 17.0108 31.863 13.9858 33.4442C11.3389 34.8192 10.8577 34.9567 10.7202 34.4755C10.4108 33.4098 9.13891 26.4661 9.13891 25.813C9.13891 25.3661 9.58579 25.0223 10.7889 24.6786C12.542 24.1286 18.6952 21.4473 19.2796 21.0005C20.1046 20.3473 25.7421 18.2505 26.7046 18.2505C28.2171 18.2505 29.4202 16.9098 29.4202 15.1911C29.4202 13.2661 28.2514 11.9598 25.9827 11.4442C22.8202 10.7223 20.3452 10.9629 16.1858 12.4411Z"
        fill="black" />
    <path
        d="M134.814 20.6567C133.611 21.0348 132.098 22.4098 130.861 24.2661C130.036 25.538 129.967 25.9161 129.967 29.3192C129.967 32.8942 130.002 32.9973 131.033 34.2692C132.202 35.713 134.023 36.7442 137.255 37.8442C138.423 38.2567 139.902 38.9098 140.52 39.3567C141.517 40.0442 141.655 40.2849 141.62 41.5911C141.586 43.3099 140.589 44.8567 139.386 44.9942C138.905 45.0286 137.564 44.513 136.189 43.688C134.917 42.9317 133.508 42.313 133.061 42.313C132.064 42.313 131.102 43.4474 131.102 44.6161C131.102 45.613 131.652 46.1974 135.398 49.0161C139.661 52.2474 143.992 51.7317 146.295 47.6755C147.498 45.5786 147.842 43.7567 147.498 40.7661C147.086 36.6755 145.127 34.7505 138.905 32.3442L135.811 31.1411L135.708 29.7661C135.605 28.2192 136.258 26.7411 137.048 26.5692C137.358 26.5005 138.08 26.9473 138.664 27.5317C140.073 28.9067 141.517 28.9411 142.892 27.5661C143.545 26.913 143.889 26.1911 143.889 25.538C143.889 24.4036 142.686 22.4442 141.655 21.8942C141.277 21.688 140.898 21.413 140.795 21.2755C140.142 20.4161 136.842 20.0723 134.814 20.6567Z"
        fill="black" />
    <path
        d="M117.936 22.2036C117.764 22.2723 117.18 22.4098 116.63 22.513C115.186 22.8567 113.123 24.9192 112.264 26.913C111.611 28.4598 111.508 29.1473 111.645 31.8973L111.783 35.1286L113.33 36.6411C114.533 37.8786 115.598 38.463 118.452 39.563C122.645 41.1442 123.711 42.0724 123.367 43.7911C123.092 45.338 122.233 46.713 121.442 46.9192C121.064 47.0224 119.586 46.438 117.902 45.5442C114.808 43.9286 113.777 43.8942 112.952 45.4067C112.298 46.6442 112.814 47.5724 115.255 49.4974C118.658 52.2474 119.586 52.6942 121.992 52.8661C124.708 53.038 126.117 52.3505 127.63 50.1161C129.142 47.8817 129.589 46.0599 129.314 43.3442C128.867 39.0474 127.045 36.8473 122.37 34.9567C121.064 34.4067 119.414 33.7536 118.727 33.4442C117.18 32.8255 116.905 32.138 117.455 30.2473C118.039 28.3223 119.002 27.9786 120.205 29.2848C121.923 31.1067 124.948 30.3848 125.533 27.9786C125.842 26.7411 124.639 24.4723 123.161 23.5786C121.305 22.4098 119.036 21.8255 117.936 22.2036Z"
        fill="black" />
    <path
        d="M192.942 23.888C187.992 25.6755 184.933 30.7973 184.073 38.8067C183.592 43.413 183.833 46.6099 184.899 49.738C185.999 52.9005 186.411 53.6567 187.992 55.3411C190.399 57.9536 195.142 58.5036 198.305 56.5442C200.711 55.0317 201.674 53.9317 202.842 51.4224C203.977 48.913 205.386 44.0317 205.455 42.1755C205.489 41.5911 205.627 42.6567 205.799 44.5474C206.28 50.4599 207.38 53.6224 209.889 56.4755C211.505 58.3317 213.43 59.0192 216.317 58.7099C219.686 58.3661 222.539 55.3411 223.433 51.1817C224.189 47.7442 224.67 40.7661 224.327 38.8755C223.433 33.8911 222.23 29.0786 221.852 28.838C221.611 28.7005 220.958 28.563 220.442 28.563C219.652 28.563 219.377 28.8036 218.999 29.7661C218.414 31.1411 217.074 35.8848 215.905 40.6973C215.458 42.5536 215.045 44.1692 214.942 44.238C214.874 44.3411 214.564 43.5161 214.255 42.4161C213.774 40.6286 213.464 38.8067 212.295 30.9692C212.124 29.7317 211.883 28.1505 211.78 27.4286C211.505 25.7442 210.542 24.7817 209.099 24.7817C207.345 24.7817 206.314 26.0536 206.555 27.9442C206.624 28.7692 206.555 31.2786 206.349 33.5473L205.97 37.6723L205.386 35.163C205.042 33.788 204.664 32.5161 204.561 32.3442C204.458 32.2067 204.527 31.6567 204.733 31.1411C204.974 30.4536 204.939 29.9723 204.527 29.1817C203.874 27.9442 200.642 24.8505 199.13 24.0255C197.789 23.3036 194.764 23.2348 192.942 23.888ZM199.164 30.4192C199.233 30.5223 198.958 32.1036 198.545 33.9598C198.133 35.8161 197.514 38.738 197.205 40.4223C196.655 43.4817 195.039 47.4692 194.386 47.4692C193.424 47.4692 192.049 41.4536 192.049 37.3286C192.049 34.5442 192.53 32.963 193.939 31.2098C194.902 29.9723 194.936 29.9723 196.964 30.1098C198.064 30.213 199.061 30.3505 199.164 30.4192Z"
        fill="black" />
    <path
        d="M84.1109 25.4692C82.564 25.8473 79.5046 28.9067 78.439 31.1411C77.9921 32.1036 77.4421 33.9598 77.2359 35.3005C77.0296 36.6411 76.6515 38.188 76.3421 38.7724C75.9296 39.5974 75.8952 40.0442 76.1702 40.8005C76.3765 41.3505 76.789 43.7911 77.064 46.2661C77.3046 48.7067 77.6827 51.2849 77.889 51.9724C78.3015 53.4849 79.4015 54.2755 81.3952 54.5505C82.6671 54.7224 83.0796 54.6192 84.3171 53.6911C85.1421 53.1067 85.864 52.2474 86.0015 51.7317C86.139 51.2161 85.9671 47.7099 85.6577 43.8942C85.1765 37.9817 85.1421 36.7786 85.5546 35.438C86.2077 33.3067 87.7202 30.9692 88.4765 30.9692C88.8203 30.9692 89.4046 30.763 89.7484 30.488C90.1609 30.213 90.8484 30.0755 91.5015 30.1786C92.3953 30.3161 92.7046 30.213 93.1859 29.4911C94.114 28.0817 93.5984 27.2567 91.0546 26.1223C88.7515 25.0911 86.5859 24.8848 84.1109 25.4692Z"
        fill="black" />
    <path
        d="M98.8578 26.0192C97.0703 27.0505 94.389 30.0411 93.3578 32.138C92.3609 34.2692 91.8796 37.2598 92.0515 40.7661C92.2234 44.5474 93.014 46.3349 95.6609 49.2224C97.9984 51.7317 99.8547 52.6599 102.639 52.6599C104.392 52.6942 104.977 52.5224 106.352 51.6286C108.655 50.1505 110.03 48.6036 111.061 46.3692C112.058 44.1349 111.989 43.1724 110.683 42.588C109.995 42.2786 109.652 42.3474 108.483 43.138C107.727 43.6192 107.005 44.0317 106.867 44.0317C106.695 44.0317 105.905 44.5817 105.08 45.2349C103.292 46.6786 101.883 46.7817 100.198 45.6474C98.3765 44.4442 96.589 40.8692 98.1015 41.4536C100.405 42.3474 103.945 41.8661 105.664 40.4567C108.208 38.2911 109.514 33.238 108.345 30.1098C107.589 28.1505 105.217 26.0192 103.155 25.5036C101.023 24.988 100.611 25.0223 98.8578 26.0192ZM102.914 30.488C104.014 31.2442 103.945 33.1348 102.777 34.3036C101.986 35.0598 101.711 35.163 100.302 34.9567C99.4421 34.8536 98.6515 34.6817 98.5828 34.5786C98.1015 34.0973 100.955 29.938 101.745 29.938C101.952 29.938 102.502 30.1786 102.914 30.488Z"
        fill="black" />
    <path
        d="M234.949 26.3286C233.402 27.0161 230.48 30.7973 229.345 33.6161C227.799 37.3973 227.283 40.9036 227.249 47.7442V54.0692L228.383 55.0661C229.861 56.4067 231.477 56.4067 232.92 55.1005C233.849 54.3099 234.158 53.5192 235.189 49.3599C236.839 42.6567 237.011 40.8349 236.049 39.5286L235.292 38.5317L236.358 36.538C237.802 33.8223 239.177 32.413 240.758 32.138C241.445 32.0005 242.305 31.6911 242.649 31.3817C243.783 30.3848 243.199 27.7036 241.583 26.638C240.345 25.813 236.53 25.6411 234.949 26.3286Z"
        fill="black" />
    <path
        d="M64.4483 28.4255C62.214 29.113 59.7733 31.3817 58.6046 33.8911C57.7108 35.7817 57.6077 36.2973 57.6077 39.7692C57.6077 45.5099 58.4671 49.2911 61.6983 57.988C62.6608 60.4974 63.6921 63.7974 64.0015 65.2411C64.8608 69.4349 66.064 70.1911 69.639 68.8505C71.9077 67.9911 72.2171 67.063 71.3234 64.2786C70.9452 63.0755 70.189 61.288 69.639 60.3599C68.9515 59.1224 68.6421 57.9536 68.4702 56.1661C68.3671 54.8255 68.1952 53.4849 68.0577 53.2099C67.9546 52.8661 68.4359 52.3849 69.5359 51.7661C71.8734 50.3911 72.3546 49.9442 73.4546 47.7786C75.0702 44.5474 75.3109 43.0692 74.8296 39.0817C74.1421 33.6848 72.114 29.8692 69.1234 28.5286C67.5077 27.7723 66.5796 27.738 64.4483 28.4255ZM66.0296 35.3348C66.1671 35.6786 66.3733 37.9473 66.4421 40.4223L66.614 44.8911L65.789 44.1005C65.3421 43.688 64.5515 43.3442 64.0702 43.3442C63.2796 43.3442 63.1765 43.2067 62.9702 41.488C62.8671 40.4567 62.8327 39.4255 62.9015 39.1505C62.9702 38.9098 63.1421 38.2911 63.2452 37.7755C63.4515 36.8473 64.9983 34.7505 65.514 34.7505C65.6515 34.7505 65.8921 35.0255 66.0296 35.3348Z"
        fill="black" />
    <path
        d="M288.952 29.5255C288.161 29.9036 287.646 30.488 287.439 31.1411C287.267 31.6911 286.099 34.4067 284.792 37.1567C283.52 39.9067 281.664 44.1005 280.736 46.438C279.808 48.8099 278.02 52.9005 276.783 55.5474C275.545 58.1942 274.514 60.6005 274.514 60.9099C274.514 61.2192 274.205 62.3536 273.827 63.488C272.967 65.963 272.933 66.238 273.483 69.4693C273.964 72.4599 274.789 73.8005 276.37 74.213C278.708 74.8661 280.702 73.7318 281.355 71.3943C281.527 70.6724 282.077 69.813 282.558 69.4349C283.039 69.0568 283.452 68.5068 283.452 68.2661C283.452 68.0255 283.967 66.8224 284.62 65.5849C285.274 64.3818 286.305 61.7692 286.889 59.8099C287.474 57.8505 288.883 53.2786 290.017 49.7036C292.492 41.7286 293.764 36.2973 293.764 33.4786C293.764 31.588 293.627 31.2098 292.836 30.3161C291.599 29.0098 290.43 28.7692 288.952 29.5255Z"
        fill="black" />
    <path
        d="M265.714 34.063C263.377 35.4036 261.211 37.9473 259.527 41.2817L258.186 44.0317L256.639 43.8255C255.367 43.688 254.886 43.7911 254.095 44.4099C253.305 45.0286 253.167 45.3724 253.27 46.4036L253.374 47.6411L250.761 44.9255L248.149 42.2099L250.177 40.113C252.411 37.7755 252.755 36.3661 251.483 35.0942C250.658 34.2692 248.802 34.2005 247.839 34.9223C247.495 35.1973 246.808 35.438 246.395 35.438C245.88 35.438 244.745 36.2286 243.336 37.5692C240.139 40.663 239.108 42.8974 239.795 45.4411C240.277 47.263 242.339 49.463 244.264 50.288C246.086 51.0786 247.014 51.8349 247.014 52.5567C247.014 53.3474 243.336 57.4724 241.652 58.538C239.555 59.8786 239.589 61.2193 241.858 62.7318C245.158 64.9318 252.514 60.4286 254.061 55.2724C254.714 53.0724 254.714 51.388 254.061 49.5661L253.58 48.1567L254.336 48.5692C254.749 48.7755 255.539 49.0505 256.055 49.1536C256.983 49.3599 257.017 49.3942 257.189 52.4536C257.499 58.5724 259.011 62.0786 261.933 63.5911C263.892 64.6224 265.267 64.6224 267.433 63.6943C269.599 62.6974 272.452 59.7755 272.452 58.4692C272.452 57.9192 272.245 57.3692 272.039 57.1974C271.799 57.0599 270.389 56.9224 268.945 56.9224C267.33 56.9224 266.299 56.7849 266.367 56.5786C266.402 56.3724 266.711 56.2349 267.055 56.2692C267.467 56.2692 267.605 56.1317 267.467 55.7536C267.261 55.2036 267.089 53.9317 266.814 50.3567L266.642 48.2599L268.499 46.9536C272.074 44.513 274.445 39.5286 273.517 36.4348C273.311 35.7473 272.589 34.6817 271.936 34.0973C270.252 32.6536 268.189 32.6192 265.714 34.063Z"
        fill="black" />
    <path
        d="M47.9484 36.3661C47.2265 37.2598 46.0577 39.5286 45.5765 41.0067C45.3702 41.7286 45.0952 42.313 44.9921 42.313C44.889 42.313 43.9609 41.5567 42.9296 40.5942C40.5921 38.463 38.014 37.5348 36.7421 38.3598C35.4358 39.2192 35.7108 40.4223 37.7733 42.6224C38.7358 43.688 40.3171 45.6474 41.2108 46.988L42.8609 49.4286L41.8296 53.5192C40.5233 58.5724 40.4546 60.1192 41.6233 61.3567C42.7234 62.5599 44.5796 62.5943 45.7484 61.3911C46.2296 60.9442 46.6077 60.2567 46.6077 59.8786C46.6077 59.5005 46.7452 58.8474 46.9171 58.4005C47.089 57.9536 47.3296 57.3349 47.4327 57.0255C47.5702 56.5099 47.8452 56.5786 49.4265 57.6099C51.764 59.1567 53.7577 59.2599 54.8234 57.9192C56.164 56.2349 55.5109 54.2067 53.1046 52.4536C52.2109 51.7661 50.9734 50.5974 50.3546 49.8411C49.1515 48.2942 49.1171 49.1192 50.5609 40.5942C51.214 36.7786 50.9734 35.7817 49.4265 35.7817C48.8765 35.7817 48.2234 36.0567 47.9484 36.3661Z"
        fill="black" />
    <path
        d="M311.639 36.6067C306.964 38.5317 302.221 42.2786 298.199 47.1255C292.046 54.5505 290.361 58.7442 288.78 70.3286C288.47 72.5974 288.058 74.6943 287.886 75.038C286.511 77.5818 289.399 79.7474 292.08 78.1661C292.939 77.6505 293.317 76.8255 295.105 71.3599C297.855 63.0067 299.23 59.5005 299.746 59.5005C299.986 59.5005 301.052 59.8099 302.117 60.1536C304.008 60.8067 305.658 60.9442 310.367 60.9099C312.361 60.8755 312.808 60.738 313.53 60.0161C314.011 59.5692 314.389 58.813 314.389 58.3661C314.389 57.163 313.186 55.8224 311.914 55.513C311.296 55.4099 309.783 54.7911 308.546 54.1724C307.308 53.5536 305.864 52.9349 305.314 52.7974L304.317 52.5911L306.002 50.8724C308.064 48.7411 312.396 45.8192 315.558 44.3755C317.896 43.3442 317.93 43.3442 319.408 43.8942C321.367 44.6505 322.467 44.3411 322.949 42.9661C323.602 41.0411 323.43 40.0098 322.089 38.5317C319.717 35.8848 315.283 35.0598 311.639 36.6067Z"
        fill="black" />
</svg>